<?xml version="1.0" standalone="no"?>
<!DOCTYPE svg PUBLIC "-//W3C//DTD SVG 1.1//EN" "http://www.w3.org/Graphics/SVG/1.1/DTD/svg11.dtd">
<svg xmlns="http://www.w3.org/2000/svg" id="Layer_1" data-name="Layer 1" viewBox="0 0 1333.87 708.86" width="1333.8699951171875" height="708.8599853515625">
  <defs>
    <style>
      .cls-1 {
        fill: #634e42;
      }

      .cls-2 {
        fill: #f39200;
      }

      .cls-3 {
        fill: #e6332a;
      }

      .cls-4 {
        fill: #e94e1b;
      }
    </style>
  </defs>
  <path class="cls-1" d="m16.34,538.58c9.73,3.89,18.8,8,28.19,11.15,14.01,4.71,28.32,8.62,43.15,9.68,11.32.81,22.72,1.76,34.01,1.2,13.05-.64,25.75-3.81,36.37-12.18,8.45-6.65,13.05-15.5,13.58-26.28.32-6.47-.2-12.77-3-18.9-4.07-8.9-11.05-14.83-19.04-19.7-12.5-7.63-26.05-13.01-39.85-17.83-20.67-7.23-40.56-16.17-58.57-28.77-16.26-11.38-29.94-25.18-38.48-43.45-4.38-9.37-6.99-19.19-8.16-29.51-1.74-15.36.03-30.26,4.89-44.81,4.21-12.57,10.94-23.71,19.72-33.71,18.31-20.85,41.74-32.89,68.23-39.23,10.7-2.56,21.76-3.89,32.74-4.86,10.18-.9,20.49-1.24,30.69-.69,27.22,1.47,53.8,6.19,78.86,17.59,1.89.86,1.85,1.63,1.36,3.36-4.23,14.96-8.33,29.96-12.47,44.95-1.38,4.99-2.74,9.99-4.15,14.98-.36,1.27-.88,2.49-1.35,3.79-5.62-2.18-10.93-4.3-16.29-6.31-11.34-4.26-22.99-7.44-35.05-8.6-10.48-1.01-21.02-2.08-31.52-1.93-13.11.19-25.93,2.83-36.8,10.81-8.35,6.14-13.47,14.12-13.98,25.13-.65,13.99,5.94,23.46,16.74,30.96,12.93,8.98,27.56,14.45,41.92,20.49,14.88,6.26,29.89,12.28,44.49,19.16,10.84,5.1,20.81,11.86,29.65,20.07,3.81,3.54,7.37,7.34,11.08,10.99.99.97,2.12,1.78,2.79,2.32,4.13-10.56,7.73-20.99,12.27-31,4.64-10.22,11.21-19.27,18.72-27.71,20.27-22.79,45.9-35.63,75.39-41.87,15.92-3.36,32.01-4.08,48.08-3.17,18.13,1.03,35.68,5.21,52.2,13.12,10.65,5.1,20.69,11.08,29.43,19.11.73.67,1.87.88,3.37,1.55v-27.59h60.11c.09-1.59.19-2.79.22-3.99.24-8.29,0-16.63.84-24.86.88-8.58,4.68-16.22,10.11-22.96,12.5-15.51,28.93-25.43,47.11-32.75,6.59-2.65,13.32-4.95,20.01-7.35,1.23-.44,2.55-.61,4.22-1v92.68h60.73v36.31c1.94-1.13,3.36-1.58,4.27-2.53,8.25-8.67,17.44-16.15,27.78-22.18,13.6-7.93,28.24-12.89,43.72-15.73,11.49-2.11,23.05-2.42,34.61-1.9,24.85,1.11,47.75,8.03,67.48,23.89,16.48,13.25,27.66,30.14,35.25,49.69,4.73,12.17,7.87,24.77,9.31,37.64,1.25,11.14,1.45,22.43,1.45,33.66,0,6.97-1.3,13.93-1.94,20.91-.29,3.1-2.24,3.25-4.75,3.25-55.79-.05-111.59-.04-167.38-.04h-4.85c-1.06,6.33.97,11.74,3.14,17.04,6.32,15.42,18.6,24.36,33.56,30.17,13.02,5.06,26.59,7.22,40.54,6.77,10.77-.35,21.6-.39,32.3-1.52,14.25-1.5,28.27-4.55,41.87-9.24.3-.1.67-.01,1.37-.01,1.44,7,2.95,14.01,4.33,21.04,2.01,10.28,3.85,20.59,5.91,30.86.53,2.62.24,3.93-2.66,5.03-15.04,5.72-30.52,9.52-46.38,12.19-20.95,3.52-42.08,4.18-63.15,3.14-23.66-1.18-46.47-6.72-67.45-18.28-9.55-5.26-18.38-11.56-26.05-19.38-.79-.8-1.84-1.34-3.5-2.51,0,5.68,0,10.42,0,15.17,0,5.13-.08,10.27.04,15.4.05,2.18-.64,3.34-2.88,3.74-8.3,1.5-16.53,3.71-24.89,4.54-10.82,1.07-21.78,1.74-32.63,1.36-19.27-.67-37.07-6.18-52.46-18.42-9.61-7.64-15.89-17.46-20.14-28.8-4.19-11.17-6.77-22.68-7.43-34.59-.52-9.28-1.26-18.57-1.31-27.85-.16-34.44-.06-68.88-.06-103.33,0-1.34,0-2.68,0-4.24h-34.47c.48,1.66.67,3.18,1.33,4.46,6.77,13.31,10.81,27.5,13.21,42.14.97,5.89,1.25,11.93,1.44,17.91.24,7.34.47,14.72-.04,22.03-1.15,16.63-4.59,32.78-10.91,48.3-4.03,9.89-9.12,19.15-15.4,27.76-10,13.71-22.4,24.79-36.86,33.65-14.51,8.88-30.26,14.6-46.79,18.2-15.31,3.33-30.93,3.75-46.44,2.75-21.76-1.4-42.61-6.96-61.6-17.94-7.77-4.49-15.01-10.04-22.03-15.68-13.85-11.13-23.67-25.47-31.23-41.38-5.11-10.74-8.55-22.07-10.65-33.79-.08-.42-.25-.82-.7-2.31-.72,1.6-1.37,2.35-1.33,3.07.35,8.26.45,16.55,1.31,24.76.95,9.06,2.69,18.04,3.89,27.08.15,1.12-.72,2.58-1.49,3.59-8.98,11.72-19.6,21.67-32.24,29.36-14.02,8.53-29.16,14.45-45.17,17.77-10.91,2.26-22.01,3.93-33.11,4.8-11.78.93-23.67,1.13-35.48.67-9.9-.38-19.8-1.82-29.59-3.43-14.81-2.44-29.37-6.06-43.46-11.32-5.49-2.05-10.77-4.67-16.17-6.98-1.75-.75-2.2-1.64-1.68-3.66,4.17-16.27,8.19-32.58,12.22-48.88,1.35-5.46,2.63-10.94,3.91-16.28Zm414.32-51.54c-.33-5.66-.56-11.33-1.01-16.99-1.14-14.39-4.79-28.16-12.13-40.61-12.7-21.54-28.45-27.3-49.82-24.9-17.11,1.92-29.05,12.09-37.09,27.13-8.83,16.51-11.46,34.44-12.15,52.75-.25,6.75.72,13.56,1.23,20.33,1.05,13.85,4.97,26.86,11.7,39.01,5.25,9.47,12.55,16.94,22.36,21.64,8.43,4.04,17.39,5.09,26.72,4.27,9.62-.85,17.97-4.44,25.18-10.63,9.12-7.81,14.76-17.98,18.59-29.19,4.73-13.86,6.66-28.15,6.41-42.81Zm291.74-30.6h102.94c0-1.83.13-3.41-.02-4.96-1.01-10.07-2.92-19.9-7.88-28.9-5.34-9.69-12.82-16.9-23.52-20.44-8.33-2.75-16.77-3.26-25.47-2.06-10.02,1.38-18.59,5.54-25.94,12.31-8.96,8.24-14.06,18.8-17.39,30.26-1.27,4.36-1.79,8.95-2.72,13.79Zm-64.02,104.69c-2.02-5.01-3.94-9.47-5.61-14.02-5.15-14-7.79-28.47-8.98-43.35-.98-12.31-.69-24.54,1.04-36.66,2.55-17.9,7.61-35.13,16.11-51.22.57-1.09.67-2.43,1.02-3.8h-43.75c0,1.41,0,2.53,0,3.65-.01,31.81,0,63.62-.05,95.43-.02,9.43.34,18.81,2.81,27.98,1.53,5.67,3.87,11.08,8.24,15.01,8.23,7.4,18.36,7.88,29.17,6.99Z"/>
  <path class="cls-2" d="m974.42,128.44c-1.29-5.4-3.18-10.05-3.34-14.77-.22-6.27,1.78-12.3,5.76-17.4,6.5-8.35,15.2-12.43,25.6-11.17,12.86,1.56,21.12,9.1,24.79,21.63.31,1.07,1.68,2.53,2.64,2.6,8.71.65,17.44.96,26.16,1.53,2.62.17,4.02-.7,5.3-3.06,3.59-6.61,10.61-11.42,21.25-9.98,6.69.91,14.04,7.27,15.29,14.69.69,4.06-.03,8.52-.91,12.64-.51,2.41-.47,3.83,1.24,5.69,7.41,8.02,14.63,16.21,21.88,24.38,1.65,1.87,3.02,3.13,6.01,2.15,9.8-3.24,20.65,2.11,24.28,11.59,3.91,10.18-.51,21.33-10.51,25.56-3.05,1.29-3.8,2.92-3.91,6.05-.4,11.2-1.27,22.39-1.72,33.59-.05,1.13,1.27,2.79,2.4,3.41,6.89,3.77,10.66,9.61,10.98,17.26.59,14.18-13.32,24.26-26.82,19.42-3.25-1.16-5.24-.58-7.52,1.58-5.71,5.39-11.43,10.78-17.41,15.86-2.23,1.89-2.21,3.34-1.18,5.76,3.64,8.55,3.35,17.06-1.37,25.12-6.26,10.69-15.9,15.18-28.09,14.24-10.36-.8-20.42-9-23.42-19.61-1.1-3.89-3.29-4.84-6.62-4.96-6.93-.25-13.86-.48-20.79-.71-.68-.02-1.46.15-2.03-.12-2.83-1.3-3.93.23-5.23,2.51-3.68,6.46-9.37,10.24-16.84,10.56-14.76.63-24.88-14.27-19.06-28.05.92-2.19.62-3.31-.89-4.95-7.53-8.22-14.95-16.54-22.31-24.91-1.71-1.94-3.08-2.76-5.98-1.89-12.06,3.63-23.39-4.06-25.29-16.69-1.58-10.48,5.4-18.52,12.11-20.85,2.39-.83,2.97-2.03,3.08-4.42.53-11.32,1.25-22.64,2.02-33.95.17-2.49-.6-3.85-2.93-4.96-9.75-4.65-12.76-17.15-8.28-26.4,4.57-9.44,16.01-13.63,25.75-9.32,1.72.76,2.89,1.02,4.49-.45,7.2-6.61,14.56-13.05,21.44-19.18Zm96.4,82.95c1.01-20.98-16.19-36.52-34.53-37.32-22.92-1-38.29,16.09-39.15,35.27-.97,21.55,16.49,38.38,36.62,38.56,20.34.18,37.93-16.73,37.05-36.52Zm-81.21,73.61c3.18,1.11,4.65-.81,5.46-3.88.26-.97.88-1.84,1.32-2.76,3.72-7.66,7.45-15.31,11.16-22.98.76-1.56,1.51-3.01-.56-4.39-6.33-4.21-11.31-9.74-15.03-16.35-1.23-2.19-2.64-2.68-5.03-1.8-8.19,3.01-16.4,5.99-24.7,8.67-4.16,1.34-6.92,3.29-6.86,8.07.02,1.18-.55,2.45-1.14,3.53-1.46,2.67-.59,4.52,1.38,6.62,5.98,6.36,11.66,13,17.57,19.43,3.74,4.06,6.9,9.7,14.05,6.08.56-.29,1.34-.14,2.39-.23Zm124.92-119.8c-.3-.45-.94-1.74-1.87-2.78-7.69-8.63-15.4-17.26-23.23-25.77-.71-.77-2.33-1.13-3.46-1.02-3.13.31-6.25.86-9.33,1.54-.95.21-2.14.93-2.55,1.75-4.45,8.94-8.77,17.95-13.12,26.94-1.29,2.66-.74,4.71,1.82,6.35,5.67,3.63,9.86,8.7,13.07,14.49,1.52,2.73,3.12,3.05,5.79,2.09,9.28-3.33,18.62-6.48,27.91-9.79.99-.35,2.37-1.1,2.58-1.92.93-3.59,1.49-7.28,2.37-11.89Zm-127.44,30.92c.4-.16.8-.33,1.2-.49-.9-.81-1.67-1.87-2.71-2.38-8.99-4.36-18.03-8.61-27.05-12.93-2.04-.98-3.72-.96-5.6.67-1.67,1.45-3.97,2.16-5.71,3.54-1.16.92-2.51,2.4-2.61,3.72-.5,6.11-.52,12.26-.86,18.38-.32,5.77-.79,11.54-1.29,17.3-.18,2.08.49,3.38,2.4,4.36,1.9.97,4.04,2,5.27,3.61,1.81,2.36,3.65,2.22,5.96,1.41,8.24-2.9,16.52-5.68,24.72-8.67,5.68-2.08,5.63-2.2,5.04-8.25-.08-.79-.09-1.6-.03-2.39.41-5.96.84-11.93,1.26-17.89Zm138.46,3.05c-.11-.86.28-3.17-.67-4.07-2.82-2.7-6.14-4.88-9.35-7.15-.4-.28-1.33.03-1.95.24-10.07,3.49-20.14,6.95-30.15,10.61-.87.32-1.95,2.15-1.74,2.98,1.9,7.75,1.2,15.31-1.22,22.77-.62,1.91-.18,2.97,1.58,3.8,9.35,4.39,18.65,8.87,28.04,13.17,1.07.49,2.77.49,3.82-.02,2.93-1.42,5.73-3.15,8.46-4.93.6-.39.96-1.49,1.02-2.29.75-11.43,1.42-22.86,2.17-35.12Zm-17.45,56.43c.28-.16.56-.33.83-.49-.87-1.44-1.4-3.58-2.67-4.22-9.24-4.63-18.6-9.03-28.03-13.28-1.08-.49-3.49-.11-4.1.73-4.57,6.27-10.15,11.27-16.83,15.18-.9.53-1.76,2.55-1.46,3.49,2.42,7.44,5.07,14.81,7.83,22.13.32.85,1.87,1.91,2.71,1.8,6.06-.79,11.41,1.14,16.53,3.99,2.25,1.25,3.82.89,5.73-.88,5.65-5.25,11.45-10.34,17.33-15.34,2.85-2.42,4.57-4.89,2.87-8.77-.57-1.3-.52-2.88-.75-4.33Zm-95.5-89.02c-.11-1.15-.08-1.51-.19-1.83-2.61-7.37-5.19-14.75-7.92-22.07-.26-.69-1.56-1.42-2.35-1.39-6.45.24-12.3-1.48-17.83-4.73-.81-.47-2.61-.37-3.29.22-7.1,6.19-14.03,12.56-21.07,18.81-1.59,1.42-1.83,2.81-1.13,4.82.74,2.11,1.31,4.4,1.3,6.61-.01,2.44.87,3.68,3.02,4.68,9.06,4.2,18.07,8.51,27.07,12.85,1.89.91,2.91.55,4.2-1.21,4.4-5.99,9.63-11.15,16.31-14.68.93-.49,1.5-1.65,1.87-2.09Zm22.66-4.32c3.42.62,7.76,1.34,12.07,2.22,2.17.45,3.42.2,4.5-2.17,3.7-8.17,7.6-16.25,11.72-24.21,1.81-3.49,1.43-5.97-.34-9.64-2.85-5.91-6.55-7.62-12.81-7.34-6.99.31-14.03-.66-21.05-1.08-1.84-.11-2.92.24-3.7,2.41-1.88,5.17-4.8,9.79-9.61,12.87-2.14,1.37-2.58,3.08-1.65,5.52,2.54,6.67,5,13.38,7.24,20.15.86,2.61,2.55,2.49,4.54,2.27,2.7-.29,5.39-.59,9.1-1Zm-1.45,139.54s0-.06.01-.08c1.37,0,2.75-.14,4.1.03,2.66.34,4.11-.53,5-3.25,1.68-5.13,5.32-9.02,9.47-12.26,1.81-1.41,2.19-2.74,1.52-4.64-2.44-6.96-4.83-13.93-7.47-20.81-.38-.99-2.23-2.28-3.11-2.1-7.78,1.65-15.33.78-22.91-1.16-1.01-.26-3.02.46-3.44,1.3-4.45,8.82-8.61,17.79-12.98,26.65-1.35,2.74-1.61,4.9.91,7.27,1.4,1.32,1.81,3.62,2.95,5.29.65.95,1.82,2.05,2.84,2.14,7.69.67,15.41,1.11,23.11,1.63Z"/>
  <path class="cls-1" d="m1197.2,487.46c0-23.25.06-46.51-.07-69.76-.02-2.91,1.23-3.69,3.69-4.01,13.87-1.77,27.81-2.66,41.77-1.98,11.31.55,22.5,2.1,32.42,8.31,9.77,6.12,14.95,14.88,16.13,26.4.7,6.83-.02,13.26-2.83,19.42-2.31,5.06-5.17,9.76-9.91,13.03-2.43,1.68-2.31,3.04.47,4.36,7.05,3.34,13.06,8,16.7,14.9,2.27,4.3,4.19,9.16,4.72,13.94,1.58,14.23-.44,27.74-11.85,37.95-7.16,6.41-15.89,9.69-25.25,11.55-13.61,2.69-27.37,2.18-41.09,1.93-7.32-.13-14.62-1.3-21.93-2.03-2.6-.26-3.02-1.9-3.02-4.25.08-23.25.05-46.51.05-69.76Zm34.4,29.41h.01c0,5.24.05,10.48-.02,15.72-.03,2.04.78,2.87,2.83,2.82,3.99-.09,8.02.32,11.95-.13,6.5-.74,12.81-2.3,16.53-8.53,2.34-3.93,2.43-8.21,2.05-12.69-.52-6.21-3.42-10.38-9.14-12.7-7.24-2.94-14.85-2.83-22.43-2.48-.64.03-1.66,1.91-1.7,2.96-.18,5-.08,10.02-.08,15.03Zm-.03-62.37h.03c0,2.85-.03,5.7,0,8.54.12,9.25-1.48,8.36,8.21,7.85,9.05-.48,16.02-2.09,18.06-13.18,1.69-9.15-3.41-17.07-12.56-18.5-3.56-.56-7.22-.46-10.83-.74-2.27-.17-3,.89-2.96,3.03.09,4.33.03,8.66.03,12.99Z"/>
  <path class="cls-1" d="m1064.95,560.58c-9.46,2.12-18.85,2.71-28.26,1.1-6.57-1.12-6.53-1.35-6.53-8.07,0-16.53-.07-33.07.06-49.6.03-3.12-.85-4.17-4.05-4.12-10.26.18-20.53.06-30.8.07-1,0-2.01.11-3.4.2v60.34c-12.05,2.73-23.71,2.68-35.75.04v-3.8c0-46.06,0-92.13,0-138.19,0-4.54.22-4.73,4.81-4.88,6.24-.2,12.48-.56,18.72-.63,3.04-.03,6.1.39,9.13.71,2.26.24,3.07,1.45,3.06,3.88-.12,15.62-.06,31.24-.06,46.86,0,1.35,0,2.7,0,4.33h38.29c0-1.32,0-2.64,0-3.95,0-15.62.09-31.24-.08-46.86-.03-3.17,1.19-4.25,4.05-4.34,6.01-.19,12.02-.57,18.04-.63,3.27-.03,6.56.34,9.82.71,1.87.21,3.2.86,3.2,3.39-.09,47.2-.07,94.41-.08,141.61,0,.45-.08.9-.16,1.81Z"/>
  <path class="cls-1" d="m1152.01,414.64c9.28-1.72,18.24-2.34,27.3-1.05.11.02.23.02.34.04q7.33,1.18,7.33,8.58c0,28.5.21,57.01-.12,85.51-.12,10.85-1.93,21.64-6.89,31.5-6.85,13.59-18.43,20.81-33.15,22.93-7.15,1.03-14.47,1.6-21.67,1.32-12.88-.49-25.19-3.6-34.83-12.82-6.3-6.02-10.64-13.64-12.09-22.29-1.66-9.88-3.24-19.9-3.42-29.88-.47-26.79-.11-53.58-.23-80.38-.01-3.1,1.05-4.32,3.97-4.42,5.79-.2,11.57-.59,17.35-.64,3.5-.03,7.01.4,10.5.7,2.41.21,3.29,1.42,3.28,4.02-.11,26.45-.24,52.9.05,79.35.08,7.4,1.25,14.83,2.46,22.16,1.23,7.43,5.8,12.13,13.42,13.21,5.43.77,10.93.66,16.07-1.47,5.9-2.45,7.96-7.88,8.85-13.55.91-5.79,1.39-11.7,1.42-17.56.14-27.13.06-54.27.05-81.41,0-1.13,0-2.27,0-3.87Z"/>
  <path class="cls-4" d="m1256.62,329.49c-7.37-.38-14.49-.75-21.85-1.13-2.24,3.79-4.86,7.35-9.68,8.68-5.4,1.49-9.96.03-13.74-3.64-3.8-3.69-4.84-8.61-3.17-13.5,1.09-3.19.21-5.03-1.83-7.18-4.7-4.95-9.13-10.16-13.89-15.05-.93-.95-2.98-1.5-4.32-1.25-7.43,1.43-14.52-2.25-16.72-8.98-2.36-7.2.78-13.85,7.91-17.42,1.08-.54,2.11-2.26,2.21-3.52.63-7.55,1.08-15.13,1.35-22.7.04-1.13-.91-2.81-1.89-3.37-6.2-3.48-8.04-10.11-7.5-13.87.95-6.59,5.5-11.32,12.21-12.35,2.12-.33,4.64.07,6.58.98,2.14,1,3.17.37,4.63-1.01,4.06-3.81,8.26-7.48,12.46-11.14,1.35-1.18,1.71-2.25.93-4.05-5.3-12.35,2.59-24.79,14.6-27.25,8.99-1.85,19.15,4.22,22.03,13.6.82,2.66,1.9,3.51,4.68,3.48,5.32-.07,10.64.49,15.97.5,1.14,0,2.7-.95,3.35-1.93,4.41-6.7,11.74-8.94,18.65-5.5,6.47,3.22,8.97,10.3,6.44,17.7-.34.98-.05,2.65.61,3.43,5.2,6.02,10.5,11.96,15.93,17.77.68.72,2.35.99,3.43.79,8.97-1.7,15.22,2.16,17.55,11,1.5,5.69-2.12,12.39-8.07,15.22-.95.46-2.23,1.49-2.3,2.35-.63,7.78-.97,15.59-1.51,23.37-.15,2.18.6,3.32,2.52,4.52,9.44,5.87,8.97,18.94-.74,24.09-3.76,1.99-7.62,1.48-11.57.62-1.22-.26-3.01-.18-3.87.54-4.45,3.72-8.76,7.61-12.92,11.65-.77.75-1.14,2.67-.76,3.7,4.78,12.87-2.1,25.89-17.03,27.83-7.46.97-16.96-5.41-19.54-13.15-.39-1.18-.7-2.38-1.12-3.84Zm-29.9-70.7c-.65,15.73,11.51,26.21,25.71,26.06,14.51-.14,25.09-10.77,25.6-25,.54-15.23-11.07-26.34-25.23-26.78-14.53-.45-27.15,11.83-26.07,25.72Zm62.64-52.2c-2.93.26-5.1.26-7.15.72-1.01.23-2.21,1.15-2.67,2.08-2.92,5.9-5.53,11.95-8.51,17.81-1.14,2.23-.84,3.35,1.01,5.07,3.19,2.97,6.06,6.33,8.76,9.77,1.47,1.88,2.83,2.22,4.96,1.46,6.19-2.21,12.45-4.22,18.61-6.52.98-.36,1.79-1.72,2.24-2.8.6-1.44.96-3.04,1.04-4.6.07-1.34.04-3.09-.73-4-5.04-5.98-10.28-11.81-15.52-17.62-.7-.78-1.78-1.21-2.05-1.38Zm-54.91,81.46c-.69-.77-1.39-1.55-2.09-2.34-3.12-3.53-6.38-6.96-9.31-10.65-1.17-1.48-2.05-1.68-3.69-1.03-4.32,1.7-8.61,3.61-13.08,4.73-5.16,1.29-9.01,3.09-9.65,9.22-.21,2.01-.31,3.22,1.08,4.74,5.12,5.6,10.12,11.32,15.12,17.04,1.64,1.88,10.59,1.42,11.93-.68.12-.19.23-.39.33-.6,2.2-4.6,4.43-9.19,6.58-13.82.95-2.05,1.76-4.16,2.78-6.6Zm-38.75-13.18c1.13-.11,1.49-.08,1.81-.19,6.63-2.3,13.29-4.54,19.85-7.04.85-.32,1.56-2.01,1.66-3.13.44-4.85.33-9.76,1.04-14.56.31-2.14-.3-2.89-1.88-3.63-4.41-2.08-8.93-3.97-13.18-6.34-4.1-2.28-7.61-3.47-12.04-.18-2.23,1.65-3.23,2.9-3.26,5.56-.1,6.81-.23,13.64-.84,20.41-.22,2.47-.77,4.25,2.01,5.57,1.94.93,3.55,2.56,4.83,3.53Zm119.19-20.59c.23,0,.47,0,.7,0,0-.68.04-1.37,0-2.05-.12-1.56.3-3.62-.54-4.58-1.66-1.91-3.98-3.28-6.12-4.73-.44-.3-1.35-.12-1.96.09-6.73,2.36-13.46,4.71-20.11,7.26-.83.32-1.69,1.71-1.76,2.66-.37,4.91-.44,9.83-.72,14.75-.1,1.66-.25,2.88,1.78,3.79,5.58,2.49,10.98,5.39,16.5,8.03,5.04,2.41,11.98-1.59,12.19-7.19.22-6,.05-12.01.05-18.02Zm-10.34,41.58c-.25-2.81-.28-4.98-.69-7.07-.19-.93-.97-2.08-1.81-2.49-6.07-3.05-12.22-5.95-18.35-8.87-1.86-.89-3.08-.51-4.64,1.2-2.96,3.23-6.41,6.05-9.85,8.81-1.72,1.38-2.53,2.54-1.65,4.81,1.68,4.32,3.16,8.73,4.55,13.15.61,1.93,1.88,1.98,3.56,2.27,3.4.58,6.7,1.73,10.08,2.49,1.17.26,2.88.56,3.6-.04,5.05-4.21,9.92-8.62,14.79-13.04.42-.38.41-1.23.4-1.21Zm-54.4,26.08c2.45,0,4.07.19,5.62-.07.9-.15,1.88-.88,2.47-1.62,2.23-2.81,4.47-5.65,6.39-8.67.77-1.22,1.33-3.1.98-4.4-1.12-4.14-2.9-8.09-4.04-12.23-.75-2.69-2.23-3.03-4.69-3.02-4.46.02-8.96-.19-13.38-.78-1.98-.26-3.01-.26-3.92,1.72-2.92,6.38-6.09,12.64-8.99,19.02-.36.8.01,2.16.47,3.05.87,1.69,1.95,3.3,3.11,4.81.52.67,1.44,1.39,2.23,1.45,4.86.36,9.73.55,13.75.75Zm-33.8-114.94c-.5.31-1.44.71-2.16,1.35-2.89,2.56-5.47,5.55-8.62,7.72-4.25,2.93-6.42,6.09-5.04,11.56.57,2.24,1.12,3.59,3.17,4.54,5.77,2.66,11.51,5.4,17.18,8.26,1.91.96,3.02.42,4.42-.96,3.36-3.32,6.8-6.59,10.47-9.56,1.53-1.24,2.01-2.18,1.29-3.96-1.02-2.52-2.18-5.03-2.75-7.66-1.06-4.92-2.96-8.28-8.82-8.43-2.92-.07-5.79-1.74-9.15-2.84Zm32.23-11.47c-.34.3-1.56,1.08-2.42,2.15-2.39,2.94-4.74,5.92-6.87,9.05-.67.98-1.08,2.64-.74,3.71,1.47,4.63,3.15,9.2,5.02,13.68.38.91,1.86,1.82,2.9,1.9,4.9.41,9.82.47,14.73.78,1.77.11,2.95-.2,3.78-2,2.68-5.87,5.55-11.65,8.3-17.5.84-1.79-2.13-9.65-3.83-10.33-.3-.12-.67-.09-1.01-.12-6.2-.42-12.41-.83-19.85-1.33Z"/>
  <path class="cls-3" d="m1155.48,25.11c-3.12-7.62-3.05-14.53,3.15-20.46,9.13-8.73,22.64-4.27,26.45,6.01,1.07,2.89,2.29,3.78,5.25,3.7,4.06-.11,8.14.33,12.21.6,1.72.11,2.81-.31,3.78-1.99,2.9-5,9-6.89,14.16-4.67,5.52,2.37,8.5,8.17,6.58,13.88-.95,2.8-.08,4.42,1.68,6.29,3.74,3.98,7.41,8.03,10.92,12.2,1.45,1.72,2.89,2.16,5.01,1.59,5.24-1.41,10.73,1.41,13.03,6.55,2.2,4.93.66,11.86-4.13,14.01-3.91,1.75-4.09,4.72-4.39,7.76-.52,5.18-.67,10.41-.68,15.62,0,1.14.96,2.72,1.95,3.36,5.75,3.72,6.86,9.09,4.68,14.79-2.25,5.87-8.64,8.1-14.78,6.1-1.08-.35-2.88,0-3.75.73-3.58,2.99-6.86,6.33-10.41,9.36-1.38,1.18-1.47,2.08-.85,3.73,4.15,10.99-2.2,21.98-14.64,22.86-6.39.45-12.61-2.58-14.73-8.96-1.78-5.37-5.38-5.5-9.38-5.81-3.29-.26-6.62-.19-9.91.03-.98.07-2.21.93-2.78,1.8-2.78,4.28-6.77,6.15-11.63,5.49-5.24-.72-9.2-5.04-9.92-10.3-.19-1.39.06-3.01.62-4.3,1.2-2.79.15-4.54-1.8-6.53-3.58-3.64-6.85-7.6-10.24-11.43-1.42-1.61-2.63-3.03-5.35-2.27-5.44,1.51-10.95-1.34-13.1-6.28-2.25-5.16-1.01-11.62,3.93-14.05,3.91-1.92,4.23-4.84,4.53-8.03.48-5.07.68-10.18.66-15.27,0-1.24-1.01-3-2.08-3.64-5.63-3.39-6.62-10-4.48-14.91,2.47-5.67,8.56-7.88,14.58-5.93,1.07.35,2.44-.19,3.66-.4.29-.05.52-.42.77-.65,3.84-3.54,7.67-7.09,11.45-10.58Zm34.5,70.29c13.51.05,22.02-9.68,21.98-21.81-.03-11.62-7.68-21.62-21.69-21.73-14.07-.11-22.02,9.69-22.16,21.61-.14,11.98,8.29,21.93,21.86,21.93Zm30.51-66.42c-2.39,2.12-6.2-.7-7.88,3.18-2.2,5.1-4.64,10.11-7.13,15.08-.87,1.73-.21,2.54.99,3.72,2.65,2.59,5.26,5.28,7.48,8.23,1.37,1.81,2.47,2.18,4.53,1.4,5.08-1.93,10.29-3.55,15.35-5.52.97-.38,1.72-1.71,2.22-2.77.52-1.1.77-2.38.85-3.6.07-1,.08-2.34-.5-3-4.4-5.06-8.92-10.01-13.46-14.94-.64-.7-1.57-1.14-2.46-1.77Zm-45.2,69.51c-.34-.52-.62-1.09-1.03-1.56-2.9-3.28-5.73-6.64-8.82-9.73-.73-.73-2.51-1.03-3.57-.73-3.81,1.09-7.48,2.64-11.26,3.79-4.07,1.24-7.56,2.89-7.33,7.95.06,1.3.15,2.89.89,3.81,3.06,3.79,6.48,7.29,9.56,11.07,2.74,3.36,5.74,5.76,10.31,4.12,1.25-.45,2.77-1.25,3.34-2.33,2.34-4.4,4.36-8.97,6.51-13.48.44-.92.88-1.83,1.41-2.92Zm68.37-29.09c0-7-4.5-10.16-10.57-8.1-4.28,1.45-8.53,2.96-12.83,4.36-1.74.57-2.42,1.5-2.43,3.43-.02,3.95-.29,7.9-.66,11.84-.18,1.91.47,2.86,2.18,3.63,4.74,2.14,9.39,4.48,14.1,6.69,2.69,1.26,8.44-1.36,8.79-4.33.72-6.04,1-12.14,1.41-17.52Zm-107.24,8.49c-.01,6.86,4.54,10.16,10.31,8.18,4.27-1.47,8.54-2.98,12.82-4.42,1.81-.61,2.7-1.59,2.71-3.7.01-3.95.49-7.9.56-11.85.02-1.05-.46-2.68-1.22-3.08-4.81-2.53-9.73-4.84-14.67-7.13-2.83-1.31-8.74,1.41-9.1,4.47-.72,6.05-1,12.15-1.41,17.54Zm98.58,26.33c-2.66-2.59-.02-6.26-3.59-7.89-5.05-2.31-9.98-4.87-15.08-7.03-.94-.4-2.72.23-3.66.96-3.08,2.41-6.02,5.01-8.85,7.71-.72.69-1.41,2.17-1.15,2.99,1.21,3.88,2.66,7.69,4.24,11.43.38.89,1.51,1.76,2.47,2.06,2.88.91,5.93,1.3,8.75,2.33,2.04.75,3.39.45,4.87-1.01,1.93-1.91,4.09-3.58,6.05-5.46,1.97-1.89,3.81-3.9,5.95-6.11Zm-44.61,22.68c2.88,1.07,4.77-.61,6.13-3.98.72-1.8,2.62-3.08,3.69-4.79.73-1.16,1.57-2.8,1.27-3.94-1-3.82-2.35-7.56-3.9-11.19-.37-.87-2-1.6-3.1-1.69-3.78-.31-7.64,0-11.38-.55-2.12-.31-3.18.01-4.02,1.86-1.79,3.91-3.46,7.9-5.56,11.65-1.82,3.24-2.68,6.12.41,9.03.97.91,1.75,2.65,2.77,2.77,4.26.52,8.59.58,13.71.84Zm-.46-106.61c-2.59-.53-5.44.12-6.4,4.29-.17.72-.7,1.56-1.32,1.94-5.49,3.43-3.65,7.76-1.68,12.21.77,1.75,1,3.77,1.93,5.41.52.91,1.94,1.72,3.03,1.82,3.89.34,7.84.09,11.7.6,2,.26,2.96-.16,3.74-1.83,1.86-4,3.62-8.07,5.74-11.94,1.72-3.14,2.63-5.93-.45-8.73-.99-.9-1.71-2.71-2.72-2.85-4.14-.55-8.35-.62-13.57-.92Zm-29.95,9.44c-.69.28-1.32.36-1.71.71-3.93,3.6-7.95,7.12-11.67,10.93-1.73,1.78.2,8.59,2.49,9.7,4.79,2.32,9.55,4.72,14.46,6.75,1.04.43,2.96-.16,3.95-.94,3.06-2.45,5.95-5.13,8.72-7.91.71-.71,1.22-2.22.99-3.16-.71-2.84-1.93-5.55-2.75-8.36-.89-3.05-1.99-5.37-5.95-4.87-1.54.19-3.26-.78-4.86-1.33-1.27-.43-2.49-1.02-3.67-1.52Z"/>
  <path class="cls-1" d="m618.92,707.97v-34.52c4.99.33,9.94.02,14.55,1.12,6.23,1.49,7.74,7.8,3.54,12.71-1.16,1.36-1.56,2.26.18,3.57,4.04,3.06,5.4,6.65,3.96,10.59-1.58,4.31-5.22,6.15-9.49,6.45-4.08.29-8.19.06-12.73.06Zm7.14-14.49c0,2.78-.06,4.81.03,6.83.03.6.49,1.7.7,1.68,1.75-.12,3.71-.05,5.16-.83,1-.54,1.93-2.46,1.76-3.58-.2-1.27-1.46-2.73-2.65-3.38-1.25-.67-2.97-.47-5.01-.72Zm.19-15v9.02c2.13-.97,4.05-1.4,5.26-2.57.66-.64.69-3.05.03-3.71-1.16-1.19-3.05-1.65-5.29-2.74Z"/>
  <path class="cls-1" d="m296.43,707.94v-34.05c6.22-.05,12.41-1.28,18.14,1.53,5.15,2.52,7.93,7.14,8.32,12.74.24,3.42-.23,7.02-1.11,10.35-1.59,6.06-6.69,8.44-12.19,9.31-4.19.66-8.58.13-13.16.13Zm7-5.85c4.03.65,7.8.57,10.36-2.78,2.76-3.6,2.68-12.75.24-16.2-2.44-3.46-5.76-4.48-10.61-3.2v22.18Z"/>
  <path class="cls-1" d="m508.96,707.68c-3.12.65-5.34.58-6.99-2.87-2.32-4.87-5.42-9.36-8.25-13.98-.51-.83-1.3-1.48-1.96-2.22-.34.12-.67.24-1.01.36,0,4.71,0,9.43,0,14.14,0,5.15-.47,5.5-6.01,4.4v-33.39c2.93-.9,4.98-.41,6.54,2.45,2.59,4.75,5.47,9.35,8.28,13.97.69,1.13,1.61,2.13,2.42,3.18.31-.12.62-.24.93-.36v-19.41h6.04v33.72Z"/>
  <path class="cls-1" d="m139.3,707.64c-3.26.82-5.41.48-7.04-2.9-2.35-4.85-5.43-9.36-8.26-13.97-.5-.82-1.33-1.44-2.01-2.15-.31.13-.62.25-.93.38,0,4.61,0,9.22,0,13.84,0,5.38-.15,5.51-5.93,4.87v-33.61c2.96-.98,4.97-.29,6.51,2.52,2.6,4.74,5.45,9.35,8.26,13.98.68,1.12,1.63,2.08,2.46,3.12.31-.13.62-.26.93-.39v-19.41h6v33.7Z"/>
  <path class="cls-1" d="m770.47,673.93c1.73-.09,2.73-.19,3.73-.19.77,0,1.53.14,2.49.23v33.71c-2.99.56-5.28.81-6.97-2.73-2.33-4.86-5.42-9.36-8.24-13.99-.53-.86-1.28-1.59-1.92-2.38-.38.1-.76.2-1.13.3v9.27c0,1.59,0,3.19,0,4.78,0,5.31-.22,5.49-5.96,4.71v-33.51c3.1-1.08,5.08-.17,6.6,2.57,2.56,4.64,5.34,9.16,8.07,13.7.71,1.17,1.6,2.23,2.41,3.34.31-.1.61-.2.92-.29v-19.52Z"/>
  <path class="cls-1" d="m176.69,707.63v-33.5c3.15-1.07,5.13-.16,6.64,2.58,2.56,4.64,5.34,9.16,8.08,13.71.7,1.17,1.58,2.23,2.38,3.34.31-.1.62-.2.93-.3v-19.43h6.23v33.65c-2.99.55-5.28.82-6.97-2.73-2.32-4.86-5.42-9.36-8.24-13.98-.53-.86-1.27-1.59-1.92-2.38-.38.1-.76.2-1.14.31v9.28c0,1.6,0,3.19,0,4.79,0,5.3-.25,5.5-5.99,4.68Z"/>
  <path class="cls-1" d="m571.18,707.98c-6.76.61-12.21-4.09-13.87-11.31-1.24-5.39-.84-10.62,1.65-15.74,2.87-5.89,7.77-7.39,13.72-7.22,5.35.15,8.87,3.08,11.12,7.58,3.98,7.98,2.36,19.44-3.64,23.7-2.51,1.79-5.71,2.61-8.6,3.87-.13-.29-.26-.59-.39-.88Zm7.42-17.22c-.14-.02-.27-.04-.41-.06,0-1.59.14-3.19-.03-4.76-.41-3.76-2.45-6.2-5.3-6.58-3.49-.46-6.51.84-7.54,3.83-1.81,5.24-1.98,10.56.14,15.85,1.12,2.79,3.22,3.41,5.97,3.37,2.81-.04,5.03-.98,5.81-3.7.74-2.57.92-5.29,1.35-7.95Z"/>
  <path class="cls-1" d="m77.42,707.55v-33.68c5.35.06,10.65-1.16,15.73,1.3,6.61,3.19,8.01,10.44,2.86,15.67-1.55,1.58-1.76,2.81-.72,4.72,2.09,3.86,3.95,7.84,5.93,11.82-5.74,1.43-6.48,1.11-8.76-3.75-.96-2.04-1.82-4.14-2.77-6.18-1.16-2.5-1.89-4.47.4-7.29,1.54-1.9,1.75-5.75,1.08-8.36-.73-2.87-3.92-2.89-7.09-2.22,0,5.17,0,10.38,0,15.59,0,2.39,0,4.79,0,7.18,0,6.07-.33,6.34-6.67,5.19Z"/>
  <path class="cls-1" d="m61.5,674.03c0,9,.32,17.72-.14,26.4-.22,4.16-4.92,7.58-9.15,7.49-2.89-.06-5.85-.35-8.62-1.1-4.38-1.19-5.7-5.02-6.03-8.93-.51-6.09-.63-12.22-.74-18.33-.1-6.27,0-6.27,6.68-5.57.06,1.13.15,2.34.19,3.54.23,6.57.41,13.14.7,19.7.18,4.12,1.59,5.32,5.8,5.23,3.69-.08,5.07-1.57,5.09-5.62.03-5.81,0-11.61,0-17.42.01-6.19.17-6.31,6.21-5.39Z"/>
  <path class="cls-1" d="m661.21,674.13c0,5.39-.08,10.62.03,15.83.06,2.93.33,5.87.72,8.77.38,2.8,2.49,3.96,6.23,3.73,3.01-.18,4.56-1.77,4.58-4.76.03-6.03,0-12.07.02-18.1q0-6.28,6.62-5.64c.09.9.29,1.87.26,2.83-.19,7.81-.09,15.66-.78,23.43-.41,4.6-4.93,7.81-9.66,7.71-2.67-.06-5.43-.26-7.97-1-4.43-1.29-5.9-5.09-6.2-9.19-.45-6.21-.62-12.44-.73-18.67-.1-5.75.26-5.96,6.87-4.95Z"/>
  <path class="cls-1" d="m390.34,707.76c-.7-2.16-1.36-4.19-2.14-6.6-3.3,0-6.78-.13-10.22.1-.77.05-1.72,1.23-2.11,2.11-.58,1.31-.74,2.81-1.11,4.41h-6.25c1.22-4,2.38-7.91,3.6-11.8,1.85-5.91,3.99-11.75,5.53-17.74.94-3.65,2.66-5.19,6.35-4.53.66.12,1.35.08,2.49.14,1.68,5.58,3.34,11.27,5.1,16.93,1.73,5.58,3.56,11.12,5.44,16.99h-6.66Zm-7.35-23.93c-.3,0-.61,0-.91.01-.95,3.71-1.9,7.42-2.93,11.45h6.63c-1.02-4.18-1.9-7.82-2.79-11.46Z"/>
  <path class="cls-1" d="m235.33,690.28h6.87c0,5.09.06,10.06-.08,15.02-.02.62-1.07,1.71-1.68,1.74-4.58.2-9.34.98-13.72.05-6.74-1.44-11.27-8.66-11.21-15.94.07-7.97,4.78-15.36,11.59-16.86,3.4-.74,7.15-.1,10.7.29.59.06,1.52,2.11,1.32,3.03-.2.88-1.85,2.26-2.53,2.09-11.9-3-14.87,6.22-13.09,15.28,1.08,5.5,4.26,7.77,9.2,7.51,1.87-.1,2.7-.79,2.66-2.68-.06-3.05-.02-6.11-.02-9.53Z"/>
  <path class="cls-1" d="m337.56,707.75v-33.81h18.74v5.81h-11.74v7.54h9.04v5.51h-9.07v8.79h11.7v6.16h-18.68Z"/>
  <path class="cls-1" d="m792.23,673.87h18.62v5.94h-11.81v7.55h9.1v5.39h-9.01v9.02h11.77v5.95h-18.68v-33.85Z"/>
  <path class="cls-1" d="m825.37,701.72c3,.25,5.99.54,8.99.72,2.32.14,4.44-.99,4.47-3.19.02-1.65-1.27-3.78-2.64-4.86-1.79-1.41-4.33-1.82-6.37-2.99-3.87-2.22-5.67-5.66-4.98-9.2.86-4.42,3.5-7.23,7.91-8.31,3.57-.87,8.82-.05,11.75,1.8-.84,4.42-.83,4.35-5.1,3.39-1.38-.31-3.09-.61-4.24-.06-1.38.65-3.3,2.26-3.25,3.37.07,1.49,1.52,3.31,2.89,4.26,2.84,1.96,6.4,2.97,8.95,5.19,4.13,3.6,2.86,11.22-1.83,14.1-4.38,2.69-9.2,2.41-13.9,1.8-4.14-.53-4.26-1.27-2.66-6.02Z"/>
  <path class="cls-1" d="m408.42,706.43c.5-1.97.85-3.35,1.2-4.75,3.17.27,6.16.58,9.16.76,2.3.14,4.45-.93,4.49-3.16.03-1.65-1.25-3.74-2.59-4.9-1.56-1.34-3.84-1.82-5.75-2.78-4.22-2.09-6.16-5.25-5.68-9.08.54-4.32,3.52-7.91,7.97-8.56,3.97-.58,8.15-.99,11.75,1.61q-.85,4.51-5.11,3.44c-4.22-1.06-7.41.19-7.73,3.03-.27,2.41.96,3.7,3.04,4.71,3.11,1.52,6.45,2.87,9.03,5.07,3.96,3.39,2.98,11.28-1.54,13.9-5.78,3.36-11.83,2.98-18.26.7Z"/>
  <path class="cls-1" d="m714.49,675.56c-.07,4.26-2.18,4.41-5.16,3.53-1.33-.39-3.08-.63-4.24-.09-1.39.65-3.3,2.26-3.25,3.37.07,1.48,1.52,3.31,2.88,4.25,2.84,1.96,6.38,2.99,8.96,5.2,3.96,3.39,2.98,11.29-1.54,13.9-5.78,3.34-11.83,2.97-18.17.72.42-1.8.77-3.28,1.11-4.74,3.2.26,6.2.56,9.2.73,2.3.13,4.45-.93,4.49-3.16.03-1.66-1.26-3.72-2.59-4.91-1.45-1.29-3.64-1.71-5.46-2.61-4.45-2.18-6.33-5-6-8.9.37-4.37,3.12-7.89,7.68-8.79,4.08-.8,8.32-1.04,12.1,1.48Z"/>
  <path class="cls-1" d="m858.19,706.43c.51-1.96.87-3.34,1.23-4.73,3.16.26,6.15.56,9.15.74,2.3.13,4.45-.92,4.5-3.15.03-1.66-1.24-3.75-2.57-4.91-1.55-1.35-3.84-1.83-5.76-2.77-4.18-2.05-6.18-5.28-5.7-9.07.55-4.31,3.55-7.59,7.95-8.66,3.52-.86,8.84-.04,11.76,1.8-.8,4.42-.78,4.35-5.08,3.4-1.38-.31-3.09-.62-4.24-.08-1.39.65-3.31,2.25-3.26,3.37.06,1.48,1.51,3.32,2.87,4.26,2.84,1.96,6.38,2.99,8.96,5.19,3.97,3.39,2.99,11.28-1.52,13.91-5.78,3.36-11.83,2.96-18.27.71Z"/>
  <path class="cls-1" d="m537.98,679.93v27.77h-6.78v-27.68h-8.3v-6.27c7.38,0,14.53-.11,21.67.15.81.03,1.88,2.09,2.21,3.36.46,1.77-.63,2.72-2.53,2.67-1.92-.05-3.83-.01-6.28-.01Z"/>
  <path class="cls-1" d="m.55,680.08v-6.33c7.46,0,14.52-.11,21.56.15.85.03,1.98,2,2.33,3.26.47,1.68-.45,2.82-2.42,2.77-1.93-.05-3.85,0-6.18,0v27.74h-7.01v-27.58H.55Z"/>
  <path class="cls-1" d="m462.93,673.86h6.39c.07,1.32.2,2.52.2,3.73.02,8.19.01,16.38,0,24.57,0,6.25-.02,6.27-6.6,5.57v-33.86Z"/>
  <path class="cls-1" d="m274.66,673.86h6.4c.07,1.32.19,2.52.19,3.73.02,8.19,0,16.38,0,24.57,0,6.25-.02,6.27-6.6,5.57v-33.86Z"/>
  <path class="cls-1" d="m730.5,707.73v-33.74h6.5c.07,1.16.19,2.36.19,3.57.02,8.19.01,16.38,0,24.57q0,6.28-6.7,5.6Z"/>
  <path class="cls-1" d="m154.76,707.73v-33.74h6.5c.07,1.16.19,2.37.19,3.57.02,8.19.01,16.38.01,24.57q0,6.27-6.7,5.6Z"/>
</svg>